# xmcd
#
# Track frame offsets: 
#        150
#        20343
#        27664
#        34391
#        40430
#        50927
#        63498
#        74578
#        85464
#        104461
#        108989
#        115782
#        119445
#        129958
#        136453
#        142283
#        153782
#        163101
#        172457
#        180311
#        190023
#        195275
#        202643
#        215911
#        224187
#
# Disc length: 3173 seconds
#
# Revision: 0
# Processed by: cddbd v1.5.2PL0 Copyright (c) Steve Scherf et al.
# Submitted via: ExactAudioCopy v0.99pb1
#
DISCID=8b0c6319
DTITLE=Разные исполнители - Песенки для самых маленьких - 4
DYEAR=2002
DGENRE=Blues
TTITLE0=Танцуйте сидя
TTITLE1=Из чего тольк сделаны мальчики
TTITLE2=Азбука
TTITLE3=Бюро находок
TTITLE4=Все на свете можешь ты
TTITLE5=Все сбывается на свете
TTITLE6=Де ре ми фа соль
TTITLE7=Добрым быть на белым свете
TTITLE8=Загадки автомобиля
TTITLE9=Зимняя сказка
TTITLE10=Про опечатку
TTITLE11=Веселый карандаш
TTITLE12=Песенка Красной шапочк
TTITLE13=Песенка почтальона
TTITLE14=Песенка Чипполино
TTITLE15=По дороге с облаками
TTITLE16=Подарок для слона
TTITLE17=Прилетели восемь галок
TTITLE18=Точк, точка, запятая
TTITLE19=Хотабыч
TTITLE20=Что такое Новый год
TTITLE21=Это знает всякий
TTITLE22=Дважды два - четыре
TTITLE23=Песенка Шапокляк
TTITLE24=Да здравствует сюрприз
EXTD=
EXTT0=
EXTT1=
EXTT2=
EXTT3=
EXTT4=
EXTT5=
EXTT6=
EXTT7=
EXTT8=
EXTT9=
EXTT10=
EXTT11=
EXTT12=
EXTT13=
EXTT14=
EXTT15=
EXTT16=
EXTT17=
EXTT18=
EXTT19=
EXTT20=
EXTT21=
EXTT22=
EXTT23=
EXTT24=
PLAYORDER=
